<svg width="50" height="59" viewBox="0 0 50 59" fill="none" xmlns="http://www.w3.org/2000/svg">
<g clip-path="url(#clip0_3101_141)">
<path d="M49.2301 11.6575L49.4912 14.3993C49.4912 14.3993 49.9265 21.2481 49.4912 22.4299C49.4912 22.4299 49.3171 31.0694 44.0938 38.6149C44.0938 38.6149 39.7672 45.333 30.2651 46.6683C30.2651 46.6683 17.3679 48.3538 10.0553 42.6508C10.0553 42.6508 6.22484 40.4574 3.17791 34.228C3.17791 34.228 0.589765 28.8365 0.446995 23.4608C0.446995 23.4608 -0.597666 17.6508 0.507063 12.4717L49.2301 11.6575Z" fill="#CA9867"/>
<path d="M49.4912 14.2239C49.4912 14.2239 51.4064 31.5959 42.4398 40.282C42.4398 40.282 38.8966 45.0198 30.2651 46.5561C30.2651 46.5561 27.0005 47.3905 19.4415 46.5561C19.4415 46.5561 14.6692 46.3359 8.57532 41.5103C8.57532 41.5103 18.6972 47.4931 32.2656 41.6507C32.2656 41.6507 48.5632 33.5262 49.4912 14.2239Z" fill="#BB7B60"/>
<path d="M24.839 23.2608C38.3098 23.2608 49.2301 18.0659 49.2301 11.6575C49.2301 5.24918 38.3098 0.0541992 24.839 0.0541992C11.3681 0.0541992 0.447876 5.24918 0.447876 11.6575C0.447876 18.0659 11.3681 23.2608 24.839 23.2608Z" fill="#C1D46B"/>
<path d="M25.0401 19.225C34.1752 19.225 41.5806 15.7289 41.5806 11.4163C41.5806 7.10372 34.1752 3.60767 25.0401 3.60767C15.9051 3.60767 8.49963 7.10372 8.49963 11.4163C8.49963 15.7289 15.9051 19.225 25.0401 19.225Z" fill="#A3C261"/>
<path d="M24.9965 15.1889C29.4919 15.1889 33.1362 13.5194 33.1362 11.4601C33.1362 9.40067 29.4919 7.7312 24.9965 7.7312C20.5011 7.7312 16.8569 9.40067 16.8569 11.4601C16.8569 13.5194 20.5011 15.1889 24.9965 15.1889Z" fill="#F7F1BD"/>
<path d="M14.3759 32.2101C16.0827 32.2101 17.4663 30.8156 17.4663 29.0954C17.4663 27.3752 16.0827 25.9807 14.3759 25.9807C12.669 25.9807 11.2854 27.3752 11.2854 29.0954C11.2854 30.8156 12.669 32.2101 14.3759 32.2101Z" fill="black"/>
<path d="M35.3561 32.8244C37.0629 32.8244 38.4465 31.4299 38.4465 29.7097C38.4465 27.9895 37.0629 26.595 35.3561 26.595C33.6493 26.595 32.2656 27.9895 32.2656 29.7097C32.2656 31.4299 33.6493 32.8244 35.3561 32.8244Z" fill="black"/>
<path d="M15.5511 28.8759C16.2242 28.8759 16.7699 28.4635 16.7699 27.9547C16.7699 27.4459 16.2242 27.0334 15.5511 27.0334C14.878 27.0334 14.3323 27.4459 14.3323 27.9547C14.3323 28.4635 14.878 28.8759 15.5511 28.8759Z" fill="#F2F2F2"/>
<path d="M36.7055 29.5778C37.3786 29.5778 37.9242 29.1654 37.9242 28.6566C37.9242 28.1478 37.3786 27.7354 36.7055 27.7354C36.0324 27.7354 35.4867 28.1478 35.4867 28.6566C35.4867 29.1654 36.0324 29.5778 36.7055 29.5778Z" fill="#F2F2F2"/>
<path d="M20.6873 36.0705C20.6429 35.9073 20.5332 35.5203 20.743 35.3001C20.8745 35.1615 21.1217 35.0913 21.5579 35.1931C21.5579 35.1931 24.5517 39.1808 28.1906 35.6072C28.5684 35.4993 28.9097 35.5317 29.0446 35.7195C29.224 35.9678 28.9811 36.4012 28.8705 36.5969C28.2925 37.6252 26.5461 38.4569 24.6919 38.3516C22.7009 38.2385 20.9598 37.0654 20.6873 36.0705Z" fill="black"/>
<path d="M11.5901 36.2461C13.5854 36.2461 15.2029 35.8336 15.2029 35.3248C15.2029 34.816 13.5854 34.4036 11.5901 34.4036C9.5948 34.4036 7.97729 34.816 7.97729 35.3248C7.97729 35.8336 9.5948 36.2461 11.5901 36.2461Z" fill="#FD7A99"/>
<path d="M38.4031 36.5969C40.3984 36.5969 42.0159 36.1844 42.0159 35.6756C42.0159 35.1669 40.3984 34.7544 38.4031 34.7544C36.4078 34.7544 34.7903 35.1669 34.7903 35.6756C34.7903 36.1844 36.4078 36.5969 38.4031 36.5969Z" fill="#FD7A99"/>
<path d="M14.6805 10.2757L7.97729 8.60864" stroke="#F4F198" stroke-miterlimit="10"/>
<path d="M16.2345 8.90079L11.1548 5.93262" stroke="#F4F198" stroke-miterlimit="10"/>
<path d="M17.9451 7.77519L13.9406 3.73926" stroke="#F4F198" stroke-miterlimit="10"/>
<path d="M19.9247 6.9205L17.5098 2.68628" stroke="#F4F198" stroke-miterlimit="10"/>
<path d="M22.2891 6.41594L21.4142 1.6123" stroke="#F4F198" stroke-miterlimit="10"/>
<path d="M24.9852 6.45638V1.57202" stroke="#F4F198" stroke-miterlimit="10"/>
<path d="M27.4541 6.38544L28.6111 1.64233" stroke="#F4F198" stroke-miterlimit="10"/>
<path d="M30.1293 6.56797L32.5521 2.33813" stroke="#F4F198" stroke-miterlimit="10"/>
<path d="M32.1498 7.7401L35.9655 3.73926" stroke="#F4F198" stroke-miterlimit="10"/>
<path d="M33.804 8.96825L39.0125 6.02026" stroke="#F4F198" stroke-miterlimit="10"/>
<path d="M35.1968 10.3721L41.9723 8.30151" stroke="#F4F198" stroke-miterlimit="10"/>
<path d="M35.8932 11.425L43.017 11.3723" stroke="#F4F198" stroke-miterlimit="10"/>
<path d="M35.0227 13.2676L41.8853 15.1452" stroke="#F4F198" stroke-miterlimit="10"/>
<path d="M33.7169 14.759L38.5771 17.3385" stroke="#F4F198" stroke-miterlimit="10"/>
<path d="M31.9758 15.7241L36.4008 19.7952" stroke="#F4F198" stroke-miterlimit="10"/>
<path d="M30.3069 16.5488L32.5704 20.7602" stroke="#F4F198" stroke-miterlimit="10"/>
<path d="M27.8694 16.9875L29.0011 21.4622" stroke="#F4F198" stroke-miterlimit="10"/>
<path d="M25.4318 16.6367V21.55" stroke="#F4F198" stroke-miterlimit="10"/>
<path d="M23.0274 16.9973L21.6562 21.4965" stroke="#F4F198" stroke-miterlimit="10"/>
<path d="M20.5898 16.3831L18.2933 20.5848" stroke="#F4F198" stroke-miterlimit="10"/>
<path d="M18.7286 15.6714L15.2464 19.5318" stroke="#F4F198" stroke-miterlimit="10"/>
<path d="M17.1616 14.4431L12.2865 17.4262" stroke="#F4F198" stroke-miterlimit="10"/>
<path d="M15.9428 13.1272L9.58777 15.0574" stroke="#F4F198" stroke-miterlimit="10"/>
<path d="M14.0276 11.3723L7.15027 11.6355" stroke="#F4F198" stroke-miterlimit="10"/>
<path d="M13.3285 8.64268C13.3906 8.52391 13.2015 8.30064 12.9062 8.14401C12.611 7.98738 12.3213 7.95669 12.2593 8.07547C12.1973 8.19424 12.3863 8.4175 12.6816 8.57413C12.9769 8.73077 13.2665 8.76146 13.3285 8.64268Z" fill="#333333" stroke="#333333" stroke-width="0.5" stroke-miterlimit="10"/>
<path d="M15.3314 9.60801C15.3934 9.48924 15.2043 9.26598 14.909 9.10934C14.6138 8.95271 14.3241 8.92203 14.2621 9.0408C14.2001 9.15958 14.3891 9.38283 14.6844 9.53947C14.9797 9.6961 15.2693 9.72679 15.3314 9.60801Z" fill="#333333" stroke="#333333" stroke-width="0.5" stroke-miterlimit="10"/>
<path d="M15.6793 7.15123C15.7413 7.03245 15.5522 6.80919 15.2569 6.65256C14.9617 6.49593 14.672 6.46524 14.61 6.58401C14.548 6.70279 14.737 6.92605 15.0323 7.08268C15.3276 7.23931 15.6172 7.27 15.6793 7.15123Z" fill="#333333" stroke="#333333" stroke-width="0.5" stroke-miterlimit="10"/>
<path d="M17.3327 8.29185C17.3947 8.17308 17.2056 7.94981 16.9104 7.79318C16.6151 7.63655 16.3255 7.60586 16.2634 7.72464C16.2014 7.84341 16.3905 8.06667 16.6858 8.2233C16.981 8.37994 17.2707 8.41063 17.3327 8.29185Z" fill="#333333" stroke="#333333" stroke-width="0.5" stroke-miterlimit="10"/>
<path d="M17.7848 5.93037C17.9257 5.87448 17.9586 5.62081 17.8583 5.3638C17.7579 5.10678 17.5623 4.94374 17.4214 4.99963C17.2804 5.05552 17.2475 5.30918 17.3479 5.5662C17.4483 5.82322 17.6439 5.98626 17.7848 5.93037Z" fill="#333333" stroke="#333333" stroke-width="0.5" stroke-miterlimit="10"/>
<path d="M19.0906 7.50947C19.2315 7.45358 19.2644 7.19992 19.164 6.9429C19.0637 6.68588 18.8681 6.52284 18.7272 6.57873C18.5862 6.63462 18.5533 6.88828 18.6537 7.1453C18.754 7.40232 18.9496 7.56536 19.0906 7.50947Z" fill="#333333" stroke="#333333" stroke-width="0.5" stroke-miterlimit="10"/>
<path d="M20.8319 5.404C20.9728 5.34811 21.0057 5.09445 20.9054 4.83743C20.805 4.58041 20.6094 4.41737 20.4685 4.47326C20.3276 4.52915 20.2947 4.78282 20.395 5.03983C20.4954 5.29685 20.691 5.45989 20.8319 5.404Z" fill="#333333" stroke="#333333" stroke-width="0.5" stroke-miterlimit="10"/>
<path d="M21.4412 6.89521C21.5821 6.83932 21.615 6.58566 21.5147 6.32864C21.4143 6.07162 21.2187 5.90858 21.0778 5.96447C20.9369 6.02036 20.904 6.27403 21.0043 6.53104C21.1047 6.78806 21.3003 6.9511 21.4412 6.89521Z" fill="#333333" stroke="#333333" stroke-width="0.5" stroke-miterlimit="10"/>
<path d="M26.5296 4.55612C26.607 4.55612 26.6698 4.33221 26.6698 4.05601C26.6698 3.77981 26.607 3.55591 26.5296 3.55591C26.4522 3.55591 26.3895 3.77981 26.3895 4.05601C26.3895 4.33221 26.4522 4.55612 26.5296 4.55612Z" fill="#333333" stroke="#333333" stroke-width="0.5" stroke-miterlimit="10"/>
<path d="M26.3555 6.74948C26.4329 6.74948 26.4956 6.52557 26.4956 6.24937C26.4956 5.97317 26.4329 5.74927 26.3555 5.74927C26.2781 5.74927 26.2153 5.97317 26.2153 6.24937C26.2153 6.52557 26.2781 6.74948 26.3555 6.74948Z" fill="#333333" stroke="#333333" stroke-width="0.5" stroke-miterlimit="10"/>
<path d="M29.8226 4.65311C29.9001 4.44071 29.9161 4.25118 29.8583 4.22978C29.8005 4.20839 29.6909 4.36322 29.6135 4.57562C29.536 4.78802 29.52 4.97755 29.5778 4.99895C29.6356 5.02034 29.7452 4.86551 29.8226 4.65311Z" fill="#333333" stroke="#333333" stroke-width="0.5" stroke-miterlimit="10"/>
<path d="M29.0391 6.32034C29.1165 6.10794 29.1325 5.91842 29.0747 5.89702C29.017 5.87562 28.9073 6.03046 28.8299 6.24286C28.7524 6.45526 28.7365 6.64479 28.7942 6.66618C28.852 6.68758 28.9616 6.53274 29.0391 6.32034Z" fill="#333333" stroke="#333333" stroke-width="0.5" stroke-miterlimit="10"/>
<path d="M32.7359 5.54162C32.8819 5.33827 32.9623 5.14579 32.9156 5.1117C32.8689 5.07762 32.7126 5.21483 32.5666 5.41818C32.4206 5.62153 32.3401 5.81401 32.3869 5.8481C32.4336 5.88219 32.5899 5.74497 32.7359 5.54162Z" fill="#333333" stroke="#333333" stroke-width="0.5" stroke-miterlimit="10"/>
<path d="M31.43 7.20861C31.576 7.00527 31.6565 6.81279 31.6098 6.7787C31.563 6.74461 31.4068 6.88182 31.2608 7.08517C31.1148 7.28852 31.0343 7.481 31.081 7.51509C31.1278 7.54918 31.284 7.41196 31.43 7.20861Z" fill="#333333" stroke="#333333" stroke-width="0.5" stroke-miterlimit="10"/>
<path d="M34.0314 8.22224C34.1854 8.11867 34.2838 7.99486 34.2512 7.94569C34.2186 7.89651 34.0674 7.94061 33.9135 8.04417C33.7595 8.14774 33.6611 8.27155 33.6937 8.32072C33.7262 8.36989 33.8774 8.3258 34.0314 8.22224Z" fill="#333333" stroke="#333333" stroke-width="0.5" stroke-miterlimit="10"/>
<path d="M35.8604 9.45026C36.0143 9.3467 36.1128 9.22288 36.0802 9.17371C36.0476 9.12454 35.8964 9.16863 35.7425 9.2722C35.5885 9.37576 35.4901 9.49958 35.5226 9.54875C35.5552 9.59792 35.7064 9.55383 35.8604 9.45026Z" fill="#333333" stroke="#333333" stroke-width="0.5" stroke-miterlimit="10"/>
<path d="M36.7159 10.8459C36.9745 10.8459 37.1842 10.8063 37.1842 10.7573C37.1842 10.7084 36.9745 10.6687 36.7159 10.6687C36.4572 10.6687 36.2475 10.7084 36.2475 10.7573C36.2475 10.8063 36.4572 10.8459 36.7159 10.8459Z" fill="#333333" stroke="#333333" stroke-width="0.5" stroke-miterlimit="10"/>
<path d="M37.4369 12.6143C37.4515 12.5441 37.1582 12.4227 36.7818 12.3431C36.4053 12.2635 36.0883 12.2559 36.0737 12.326C36.0591 12.3962 36.3524 12.5177 36.7288 12.5973C37.1053 12.6769 37.4223 12.6845 37.4369 12.6143Z" fill="#333333" stroke="#333333" stroke-width="0.5" stroke-miterlimit="10"/>
<path d="M35.8427 14.4846C35.8686 14.4178 35.5991 14.2493 35.2409 14.1083C34.8826 13.9672 34.5712 13.907 34.5453 13.9738C34.5194 14.0406 34.7888 14.2091 35.1471 14.3501C35.5054 14.4912 35.8168 14.5514 35.8427 14.4846Z" fill="#333333" stroke="#333333" stroke-width="0.5" stroke-miterlimit="10"/>
<path d="M33.7646 15.8443C33.7967 15.793 33.6395 15.6349 33.4136 15.4909C33.1876 15.347 32.9784 15.2719 32.9463 15.3231C32.9141 15.3743 33.0713 15.5324 33.2973 15.6764C33.5233 15.8203 33.7325 15.8955 33.7646 15.8443Z" fill="#333333" stroke="#333333" stroke-width="0.5" stroke-miterlimit="10"/>
<path d="M26.4978 17.1297C26.5578 17.1273 26.5998 16.9569 26.5916 16.7492C26.5834 16.5415 26.5281 16.3751 26.468 16.3775C26.408 16.3799 26.366 16.5502 26.3742 16.7579C26.3824 16.9656 26.4377 17.1321 26.4978 17.1297Z" fill="#333333" stroke="#333333" stroke-width="0.5" stroke-miterlimit="10"/>
<path d="M24.3214 17.1292C24.3815 17.1268 24.4235 16.9564 24.4153 16.7487C24.4071 16.541 24.3518 16.3746 24.2917 16.377C24.2317 16.3794 24.1896 16.5497 24.1978 16.7574C24.206 16.9652 24.2614 17.1316 24.3214 17.1292Z" fill="#333333" stroke="#333333" stroke-width="0.5" stroke-miterlimit="10"/>
<path d="M22.1395 16.6409C22.1932 16.4649 22.2125 16.3147 22.1826 16.3054C22.1527 16.2962 22.085 16.4313 22.0313 16.6073C21.9776 16.7833 21.9583 16.9335 21.9882 16.9428C22.018 16.952 22.0858 16.8169 22.1395 16.6409Z" fill="#333333" stroke="#333333" stroke-width="0.5" stroke-miterlimit="10"/>
<path d="M19.5977 16.2415C19.6487 16.0743 19.6491 15.9261 19.5985 15.9104C19.548 15.8947 19.4656 16.0176 19.4146 16.1848C19.3636 16.352 19.3632 16.5002 19.4138 16.5159C19.4644 16.5316 19.5467 16.4087 19.5977 16.2415Z" fill="#333333" stroke="#333333" stroke-width="0.5" stroke-miterlimit="10"/>
<path d="M21.5299 18.2202C21.5836 18.0442 21.6029 17.894 21.573 17.8848C21.5432 17.8755 21.4754 18.0107 21.4217 18.1867C21.368 18.3627 21.3487 18.5129 21.3786 18.5221C21.4085 18.5314 21.4762 18.3962 21.5299 18.2202Z" fill="#333333" stroke="#333333" stroke-width="0.5" stroke-miterlimit="10"/>
<path d="M18.5997 17.5649C18.6713 17.4399 18.7098 17.3271 18.6857 17.3131C18.6615 17.299 18.5839 17.389 18.5122 17.514C18.4406 17.6391 18.4021 17.7519 18.4262 17.7659C18.4504 17.78 18.528 17.69 18.5997 17.5649Z" fill="#333333" stroke="#333333" stroke-width="0.5" stroke-miterlimit="10"/>
<path d="M17.6792 15.6346C17.7995 15.489 17.8615 15.3411 17.8175 15.3042C17.7736 15.2673 17.6404 15.3553 17.52 15.5009C17.3996 15.6464 17.3377 15.7943 17.3816 15.8313C17.4256 15.8682 17.5588 15.7801 17.6792 15.6346Z" fill="#333333" stroke="#333333" stroke-width="0.5" stroke-miterlimit="10"/>
<path d="M15.7403 14.4253C15.9646 14.314 16.1111 14.1513 16.0674 14.0617C16.0236 13.9721 15.8063 13.9897 15.582 14.1009C15.3576 14.2121 15.2112 14.3749 15.2549 14.4644C15.2986 14.554 15.5159 14.5365 15.7403 14.4253Z" fill="#333333" stroke="#333333" stroke-width="0.5" stroke-miterlimit="10"/>
<path d="M11.6809 10.8386C11.9834 10.815 12.2219 10.7092 12.2137 10.6025C12.2055 10.4957 11.9536 10.4283 11.6511 10.452C11.3487 10.4757 11.1101 10.5814 11.1183 10.6882C11.1266 10.795 11.3784 10.8623 11.6809 10.8386Z" fill="#333333" stroke="#333333" stroke-width="0.5" stroke-miterlimit="10"/>
<path d="M11.4265 13.3755C11.7813 13.3478 12.0601 13.2117 12.0493 13.0716C12.0385 12.9315 11.7422 12.8404 11.3874 12.8682C11.0327 12.896 10.7539 13.032 10.7647 13.1721C10.7755 13.3122 11.0718 13.4033 11.4265 13.3755Z" fill="#333333" stroke="#333333" stroke-width="0.5" stroke-miterlimit="10"/>
<path d="M13.8538 11.0141C14.1544 10.9906 14.3928 10.9046 14.3865 10.822C14.3801 10.7394 14.1313 10.6915 13.8308 10.715C13.5302 10.7385 13.2917 10.8245 13.2981 10.9071C13.3044 10.9898 13.5533 11.0377 13.8538 11.0141Z" fill="#333333" stroke="#333333" stroke-width="0.5" stroke-miterlimit="10"/>
<path d="M13.6907 12.8494C14.0454 12.8217 14.3242 12.6856 14.3134 12.5455C14.3026 12.4054 14.0063 12.3143 13.6516 12.3421C13.2969 12.3698 13.0181 12.5059 13.0289 12.646C13.0397 12.7861 13.336 12.8772 13.6907 12.8494Z" fill="#333333" stroke="#333333" stroke-width="0.5" stroke-miterlimit="10"/>
<path d="M13.5736 15.3649C13.8725 15.2464 14.0843 15.0724 14.0468 14.9764C14.0093 14.8803 13.7367 14.8986 13.4378 15.0171C13.1389 15.1356 12.9271 15.3095 12.9646 15.4056C13.0021 15.5016 13.2747 15.4834 13.5736 15.3649Z" fill="#333333" stroke="#333333" stroke-width="0.5" stroke-miterlimit="10"/>
<path d="M16.0249 16.9515C16.1453 16.8059 16.2072 16.658 16.1633 16.6211C16.1193 16.5842 15.9861 16.6722 15.8658 16.8178C15.7454 16.9633 15.6835 17.1112 15.7274 17.1481C15.7714 17.1851 15.9046 17.097 16.0249 16.9515Z" fill="#333333" stroke="#333333" stroke-width="0.5" stroke-miterlimit="10"/>
<path d="M24.1471 18.8843C24.2071 18.8819 24.2491 18.7116 24.2409 18.5038C24.2327 18.2961 24.1774 18.1297 24.1173 18.1321C24.0573 18.1345 24.0153 18.3049 24.0235 18.5126C24.0317 18.7203 24.087 18.8867 24.1471 18.8843Z" fill="#333333" stroke="#333333" stroke-width="0.5" stroke-miterlimit="10"/>
<path d="M26.5844 18.7962C26.6445 18.7938 26.6865 18.6234 26.6783 18.4157C26.6701 18.208 26.6148 18.0416 26.5547 18.044C26.4947 18.0464 26.4526 18.2167 26.4608 18.4244C26.469 18.6322 26.5244 18.7986 26.5844 18.7962Z" fill="#333333" stroke="#333333" stroke-width="0.5" stroke-miterlimit="10"/>
<path d="M29.4294 18.5002C29.486 18.4798 29.4587 18.2576 29.3684 18.004C29.2782 17.7504 29.1592 17.5614 29.1026 17.5819C29.046 17.6023 29.0733 17.8245 29.1636 18.0781C29.2538 18.3317 29.3728 18.5207 29.4294 18.5002Z" fill="#333333" stroke="#333333" stroke-width="0.5" stroke-miterlimit="10"/>
<path d="M28.8204 16.9209C28.877 16.9004 28.8497 16.6783 28.7594 16.4247C28.6692 16.1711 28.5502 15.9821 28.4936 16.0025C28.437 16.023 28.4643 16.2451 28.5546 16.4987C28.6448 16.7523 28.7638 16.9413 28.8204 16.9209Z" fill="#333333" stroke="#333333" stroke-width="0.5" stroke-miterlimit="10"/>
<path d="M31.7062 16.6079C31.7566 16.5748 31.6791 16.365 31.5331 16.1393C31.3872 15.9136 31.2281 15.7574 31.1777 15.7905C31.1274 15.8235 31.2049 16.0333 31.3508 16.259C31.4967 16.4848 31.6559 16.6409 31.7062 16.6079Z" fill="#333333" stroke="#333333" stroke-width="0.5" stroke-miterlimit="10"/>
<path d="M32.7426 17.9492C32.7851 17.9064 32.6663 17.7173 32.4773 17.5268C32.2883 17.3362 32.1006 17.2165 32.0581 17.2594C32.0156 17.3022 32.1344 17.4913 32.3234 17.6819C32.5124 17.8724 32.7001 17.9921 32.7426 17.9492Z" fill="#333333" stroke="#333333" stroke-width="0.5" stroke-miterlimit="10"/>
<path d="M35.5792 17.1325C35.6123 17.0797 35.3964 16.8822 35.0968 16.6914C34.7973 16.5006 34.5276 16.3888 34.4944 16.4417C34.4613 16.4945 34.6773 16.692 34.9768 16.8828C35.2764 17.0736 35.5461 17.1854 35.5792 17.1325Z" fill="#333333" stroke="#333333" stroke-width="0.5" stroke-miterlimit="10"/>
<path d="M38.0194 15.4504C38.0453 15.3836 37.7758 15.2151 37.4176 15.0741C37.0593 14.933 36.7479 14.8728 36.722 14.9396C36.6961 15.0064 36.9655 15.1749 37.3238 15.316C37.6821 15.457 37.9935 15.5172 38.0194 15.4504Z" fill="#333333" stroke="#333333" stroke-width="0.5" stroke-miterlimit="10"/>
<path d="M39.6219 12.9231C39.6414 12.8296 39.352 12.6894 38.9755 12.6098C38.5991 12.5302 38.2782 12.5414 38.2587 12.6348C38.2393 12.7282 38.5287 12.8685 38.9051 12.9481C39.2815 13.0277 39.6025 13.0165 39.6219 12.9231Z" fill="#333333" stroke="#333333" stroke-width="0.5" stroke-miterlimit="10"/>
<path d="M38.8922 10.5827C39.1509 10.5827 39.3606 10.5431 39.3606 10.4941C39.3606 10.4452 39.1509 10.4055 38.8922 10.4055C38.6336 10.4055 38.4239 10.4452 38.4239 10.4941C38.4239 10.5431 38.6336 10.5827 38.8922 10.5827Z" fill="#333333" stroke="#333333" stroke-width="0.5" stroke-miterlimit="10"/>
<path d="M37.7749 8.48493C37.9289 8.38137 38.0273 8.25755 37.9947 8.20838C37.9622 8.15921 37.811 8.2033 37.657 8.30687C37.503 8.41043 37.4046 8.53425 37.4372 8.58342C37.4698 8.63259 37.621 8.58849 37.7749 8.48493Z" fill="#333333" stroke="#333333" stroke-width="0.5" stroke-miterlimit="10"/>
<path d="M35.8596 6.90583C36.0135 6.80226 36.112 6.67845 36.0794 6.62928C36.0468 6.58011 35.8956 6.6242 35.7417 6.72777C35.5877 6.83133 35.4893 6.95514 35.5219 7.00431C35.5544 7.05349 35.7056 7.00939 35.8596 6.90583Z" fill="#333333" stroke="#333333" stroke-width="0.5" stroke-miterlimit="10"/>
<path d="M23.7126 4.91725C23.8276 4.87752 23.8458 4.62421 23.753 4.35145C23.6603 4.0787 23.4919 3.88979 23.3768 3.92953C23.2617 3.96926 23.2436 4.22258 23.3363 4.49533C23.429 4.76808 23.5975 4.95698 23.7126 4.91725Z" fill="#333333" stroke="#333333" stroke-width="0.5" stroke-miterlimit="10"/>
<path d="M24.077 6.1396C24.1035 5.8793 24.0094 5.65635 23.8668 5.64163C23.7243 5.62691 23.5873 5.826 23.5609 6.0863C23.5344 6.3466 23.6285 6.56955 23.771 6.58427C23.9135 6.59898 24.0505 6.3999 24.077 6.1396Z" fill="#333333" stroke="#333333" stroke-width="0.5" stroke-miterlimit="10"/>
<path d="M11.4107 52.1178V49.7858C11.4107 49.7858 11.2627 48.7654 9.93079 49.4348C9.93079 49.4348 9.37624 49.77 9.30225 50.1428V57.9673C9.30225 57.9673 10.2599 59.5317 11.5204 58.4139V55.0623C11.5204 55.0623 12.1115 54.3165 12.5555 55.2106L15.0688 58.5639C15.0688 58.5639 15.7348 58.7876 17.1398 58.6385C17.1398 58.6385 17.9529 58.2656 17.4349 57.5953L13.9597 53.4225C13.9597 53.4225 13.6646 52.603 14.6257 52.2301L16.5478 50.442C16.5478 50.442 16.5479 48.2065 14.1817 49.5471L11.8155 52.081C11.8155 52.081 11.7433 52.3038 11.4107 52.1178Z" fill="#C0D274"/>
<path d="M22.5042 49.9568C22.5042 49.9568 21.6911 48.3179 19.4729 49.5848V58.3094C19.4729 58.3094 19.9082 59.8062 22.6478 58.3094L22.5042 49.9568Z" fill="#C0D274"/>
<path d="M40.4689 49.9569C40.4689 49.9569 39.6541 48.3179 37.4368 49.584V58.3086C37.4368 58.3086 37.872 59.8054 40.6117 58.3086L40.4689 49.9569Z" fill="#C0D274"/>
<path d="M24.8677 49.4358L26.4939 58.3035C26.4939 58.3035 27.677 59.4212 29.6732 58.5272L30.1912 55.7696C30.1912 55.7696 30.6351 55.2484 30.7823 56.3662C30.7823 56.3662 31.3742 58.5272 31.5222 58.6018C31.9654 58.8161 32.4549 58.9148 32.9458 58.8887C33.4366 58.8626 33.9131 58.7127 34.3315 58.4526L35.6626 49.8833C35.6626 49.8833 34.9975 48.4672 33.1484 49.5104L32.4093 52.5672L31.3742 49.6613C31.3742 49.6613 30.0432 48.7655 29.1561 50.1105L28.565 52.4952L27.3793 49.4358C27.3793 49.4358 26.7899 48.7655 24.8677 49.4358Z" fill="#C0D274"/>
</g>
<defs>
<clipPath id="clip0_3101_141">
<rect width="49.6842" height="59" fill="white"/>
</clipPath>
</defs>
</svg>
