<svg width="71" height="71" viewBox="0 0 71 71" fill="none" xmlns="http://www.w3.org/2000/svg">
<path d="M31.0232 18.1383L20.6773 1.07748C20.4 0.408943 19.6788 0 18.9021 0H2.22249C0.426513 0 -0.624721 2.02184 0.40571 3.49176L15.8414 25.5267C19.9562 21.6883 25.1985 19.0396 31.0232 18.1383Z" fill="#FF7245"/>
<path d="M68.6624 0H52.1034C51.3238 0 50.6014 0.408943 50.2006 1.07748L39.9712 18.0093C45.796 18.9107 51.0494 21.5621 55.1572 25.4116L70.5929 3.37666C71.6302 2.02184 70.5762 0 68.6624 0Z" fill="#FF7245"/>
<path fill-rule="evenodd" clip-rule="evenodd" d="M35.5028 22.1875C22.0156 22.1875 11.0942 33.1079 11.0942 46.5938C11.0942 60.0796 22.0226 71 35.5028 71C48.983 71 59.9113 60.0796 59.9113 46.5938C59.9113 33.1079 48.9968 22.1875 35.5028 22.1875ZM43.0777 49.1314L48.3311 44.0006C49.2881 43.0715 48.7611 41.4629 47.4408 41.2722L40.1765 40.2148L36.9174 33.6279C36.64 33.0455 36.0679 32.7439 35.4958 32.7439C34.9238 32.7439 34.3517 33.0386 34.0743 33.6279L30.8263 40.2114L23.562 41.2687C22.2583 41.4629 21.7175 43.0715 22.6695 43.9937L27.9229 49.1245L26.6921 56.3701C26.4674 57.6528 27.8369 58.6582 28.9984 58.0342L35.5007 54.627L42.0022 58.0411C43.1644 58.6651 44.5339 57.6598 44.3086 56.377L43.0777 49.1314Z" fill="#789336"/>
</svg>
