<svg width="40" height="40" viewBox="0 0 40 40" fill="none" xmlns="http://www.w3.org/2000/svg">
<rect x="0.5" y="0.5" width="39" height="39" rx="7.5" stroke="#FF7245"/>
<path d="M22.3332 9H16.8556C14.1779 9 12 11.2152 12 13.9386C12 14.8476 12.7238 15.5385 13.6185 15.5385C14.5133 15.5385 15.237 14.8018 15.237 13.9386C15.237 13.0311 15.9623 12.2924 16.8556 12.2924H22.3332C23.7747 12.2924 24.9482 13.4854 24.9482 14.9567C24.9482 15.9711 24.3933 16.8843 23.4055 17.3915L18.464 20.3377C17.9228 20.6361 17.6648 21.1762 17.6648 21.7575V23.8153C17.6648 24.7243 18.3886 25.461 19.2833 25.461C20.1781 25.461 20.9019 24.7243 20.9019 23.8153V22.699L24.9482 20.2811C26.9445 19.2651 28.1852 17.2243 28.1852 14.9567C28.1852 11.672 25.5602 9 22.3332 9ZM19.2833 27.9308C18.1661 27.9308 17.2602 28.8522 17.2602 29.9885C17.2602 31.1249 18.1661 32 19.2833 32C20.4006 32 21.3065 31.0792 21.3065 29.9885C21.3065 28.8979 20.4011 27.9308 19.2833 27.9308Z" fill="#FF7245"/>
</svg>
