<svg width="11" height="5" viewBox="0 0 11 5" fill="none" xmlns="http://www.w3.org/2000/svg">
<path d="M8.08999 4.89862C8.02346 4.8344 7.98611 4.74754 7.98611 4.65699C7.98611 4.56644 8.02346 4.47958 8.08999 4.41536L9.73331 2.84219H1.32025C1.22551 2.84219 1.13464 2.80609 1.06765 2.74181C1.00065 2.67753 0.963013 2.59036 0.963013 2.49946C0.963013 2.40856 1.00065 2.32138 1.06765 2.25711C1.13464 2.19283 1.22551 2.15672 1.32025 2.15672H9.72259L8.08999 0.590411C8.02225 0.525872 7.98401 0.438158 7.98367 0.346565C7.98334 0.254972 8.02094 0.167003 8.08821 0.10201C8.15548 0.0370169 8.2469 0.000323509 8.34237 2.1289e-06C8.43784 -0.000319251 8.52954 0.0357577 8.59728 0.100296L10.8693 2.28353C10.9293 2.34134 10.963 2.4196 10.963 2.50117C10.963 2.58275 10.9293 2.661 10.8693 2.71881L8.59728 4.89862C8.56407 4.93074 8.52456 4.95624 8.48102 4.97364C8.43749 4.99104 8.3908 5 8.34364 5C8.29648 5 8.24978 4.99104 8.20625 4.97364C8.16272 4.95624 8.12321 4.93074 8.08999 4.89862Z" fill="#789336"/>
</svg>
