<svg width="75" height="75" viewBox="0 0 75 75" fill="none" xmlns="http://www.w3.org/2000/svg">
<circle cx="37.5" cy="37.5" r="37" stroke="#C8C8C8"/>
<path fill-rule="evenodd" clip-rule="evenodd" d="M53 48.5849C53 50.4714 51.5404 52 49.7391 52H26.2609C24.4596 52 23 50.4714 23 48.5849V28.7771C23 27.2683 24.168 26.045 25.6087 26.045H38.7637L44.0457 24.041C44.3802 23.9132 44.7507 24.0943 44.8726 24.4433L45.4289 26.045H47.7826C49.2233 26.045 50.3913 27.2683 50.3913 28.7771V30.1431C51.832 30.1431 53 31.3664 53 32.8752V48.5849ZM25.6087 27.411C24.8887 27.411 24.3043 28.023 24.3043 28.7771C24.3043 29.5311 24.8887 30.1431 25.6087 30.1431H27.8554H27.9787C27.9872 30.1397 27.9924 30.1322 28.0009 30.1288L35.163 27.411H25.6087ZM44.5726 27.5347L43.88 25.5375L42.5417 26.045H42.5437L38.9476 27.411H38.9411L31.7417 30.1431H45.4778L44.5726 27.5347ZM49.087 28.7771C49.087 28.023 48.5026 27.411 47.7826 27.411H45.9024L46.8507 30.1431H49.087V28.7771ZM50.3913 31.5092H25.6087C25.1313 31.5092 24.6891 31.3651 24.3043 31.1301V48.5849C24.3043 49.7166 25.1809 50.6339 26.2609 50.6339H49.7391C50.8198 50.6339 51.6957 49.7166 51.6957 48.5849V43.8037H49.087C47.6463 43.8037 46.4783 42.5804 46.4783 41.0716C46.4783 39.5628 47.6463 38.3395 49.087 38.3395H51.6957V32.8752C51.6957 32.1212 51.1113 31.5092 50.3913 31.5092ZM51.6957 42.4376V39.7055H49.087C48.367 39.7055 47.7826 40.3175 47.7826 41.0716C47.7826 41.8256 48.367 42.4376 49.087 42.4376H51.6957ZM49.087 40.3885H50.3913V41.7546H49.087V40.3885Z" fill="#C8C8C8"/>
<path fill-rule="evenodd" clip-rule="evenodd" d="M33 35.8065V35H42V35.8065H38.178C38.9124 36.3923 39.4136 37.2509 39.523 38.2259H42V39.0324H39.523C39.3195 40.8469 37.7588 42.2583 35.8636 42.2583H34.515L39.4026 46.3877L38.8701 47L33.1429 42.1612C33.0129 42.0514 32.966 41.8734 33.0254 41.7151C33.0848 41.5569 33.2379 41.4518 33.4091 41.4518H35.8636C37.3063 41.4518 38.4998 40.4003 38.6983 39.0324H33V38.2259H38.6983C38.4998 36.858 37.3063 35.8065 35.8636 35.8065H33Z" fill="#C8C8C8"/>
</svg>
