<svg width="75" height="75" viewBox="0 0 75 75" fill="none" xmlns="http://www.w3.org/2000/svg">
<circle cx="37.5" cy="37.5" r="37" stroke="#C8C8C8"/>
<path d="M43.4822 24H50.3638" stroke="#C8C8C8" stroke-miterlimit="2.6131" stroke-linecap="round" stroke-linejoin="round"/>
<path d="M50.3638 24C50.8629 24 51.2719 24.4098 51.2719 24.9064" stroke="#C8C8C8" stroke-miterlimit="2.6131" stroke-linecap="round" stroke-linejoin="round"/>
<path d="M51.2715 24.9065V37.5288" stroke="#C8C8C8" stroke-miterlimit="2.6131" stroke-linecap="round" stroke-linejoin="round"/>
<path d="M51.2719 37.5288C51.2719 38.0263 50.862 38.4361 50.3638 38.4361" stroke="#C8C8C8" stroke-miterlimit="2.6131" stroke-linecap="round" stroke-linejoin="round"/>
<path d="M50.3637 38.436H49.8196" stroke="#C8C8C8" stroke-miterlimit="2.6131" stroke-linecap="round" stroke-linejoin="round"/>
<path d="M39.5569 30.6813V27.6315L43.4822 24" stroke="#C8C8C8" stroke-miterlimit="2.6131" stroke-linecap="round" stroke-linejoin="round"/>
<path d="M43.6672 24V27.2676" stroke="#C8C8C8" stroke-miterlimit="2.6131" stroke-linecap="round" stroke-linejoin="round"/>
<path d="M43.6671 27.2673C43.6671 27.5336 43.4468 27.7539 43.1814 27.7539" stroke="#C8C8C8" stroke-miterlimit="2.6131" stroke-linecap="round" stroke-linejoin="round"/>
<path d="M43.1818 27.7542H39.5569" stroke="#C8C8C8" stroke-miterlimit="2.6131" stroke-linecap="round" stroke-linejoin="round"/>
<path d="M43.7214 47.4586V47.0338M43.7214 45.6049V44.9413M43.7214 43.5124V42.8489M43.7214 41.42V40.7565M43.7214 39.3284V33.4551" stroke="#C8C8C8" stroke-miterlimit="2.6131" stroke-linecap="round" stroke-linejoin="round"/>
<path d="M43.7213 33.4551L41.1665 36.0115" stroke="#C8C8C8" stroke-miterlimit="2.6131" stroke-linecap="round" stroke-linejoin="round"/>
<path d="M43.7214 33.4551L46.5183 36.2527" stroke="#C8C8C8" stroke-miterlimit="2.6131" stroke-linecap="round" stroke-linejoin="round"/>
<path fill-rule="evenodd" clip-rule="evenodd" d="M23.3273 30.6822H24.3656L24.2938 29.8943C24.2454 29.361 24.6418 28.9253 25.1752 28.9253H32.4774C33.0107 28.9253 33.4864 29.361 33.5349 29.8943L33.6059 30.6822H47.6628C48.4623 30.6822 49.176 31.3358 49.2486 32.1354L50.8252 49.5268C50.8979 50.3263 50.3028 50.9807 49.504 50.9807H25.1685C24.3689 50.9807 23.6553 50.3263 23.5827 49.5268L22.006 32.1354C21.9334 31.3358 22.5277 30.6822 23.3273 30.6822Z" stroke="#C8C8C8" stroke-miterlimit="2.6131" stroke-linecap="round" stroke-linejoin="round"/>
<path d="M51.2717 33.353H51.8843C52.5788 33.353 53.0762 33.9205 52.9902 34.615L51.114 49.7178C51.028 50.4122 50.3895 50.9806 49.6951 50.9806" stroke="#C8C8C8" stroke-miterlimit="2.6131" stroke-linecap="round" stroke-linejoin="round"/>
<path d="M31.1734 39C28.6878 39 26.6733 41.0145 26.6733 43.5C26.6733 45.9856 28.6878 48 31.1734 48C33.659 48 35.6734 45.9856 35.6734 43.5C35.6734 41.0145 33.659 39 31.1734 39ZM31.1734 47.64C28.8907 47.64 27.0333 45.7828 27.0333 43.5C27.0333 41.2173 28.8907 39.36 31.1734 39.36C33.4561 39.36 35.3134 41.2173 35.3134 43.5C35.3134 45.7828 33.4561 47.64 31.1734 47.64Z" fill="#C8C8C8"/>
<path d="M31.3532 40.8005H30.9932V43.3206H28.4851V43.6806H30.9932V46.1886H31.3532V43.6806H33.8732V43.3206H31.3532V40.8005Z" fill="#C8C8C8"/>
</svg>
